<svg xmlns="http://www.w3.org/2000/svg" xmlns:xlink="http://www.w3.org/1999/xlink" viewBox="0 0 50 50" fill="#5B5B5B">
  <path d="M43.335938 4L6.667969 4C5.195313 4 4 5.195313 4 6.667969L4 43.332031C4 44.804688 5.195313 46 6.667969 46L43.332031 46C44.804688 46 46 44.804688 46 43.335938L46 6.667969C46 5.195313 44.804688 4 43.335938 4 Z M 27 36.183594C27 40.179688 24.65625 42 21.234375 42C18.140625 42 15.910156 39.925781 15 38L18.144531 36.097656C18.75 37.171875 19.671875 38 21 38C22.269531 38 23 37.503906 23 35.574219L23 23L27 23 Z M 35.675781 42C32.132813 42 30.121094 40.214844 29 38L32 36C32.816406 37.335938 33.707031 38.613281 35.589844 38.613281C37.171875 38.613281 38 37.824219 38 36.730469C38 35.425781 37.140625 34.960938 35.402344 34.199219L34.449219 33.789063C31.695313 32.617188 29.863281 31.148438 29.863281 28.039063C29.863281 25.179688 32.046875 23 35.453125 23C37.878906 23 39.621094 23.84375 40.878906 26.054688L37.910156 27.964844C37.253906 26.789063 36.550781 26.328125 35.453125 26.328125C34.335938 26.328125 33.628906 27.039063 33.628906 27.964844C33.628906 29.109375 34.335938 29.570313 35.972656 30.28125L36.925781 30.691406C40.171875 32.078125 42 33.496094 42 36.683594C42 40.117188 39.300781 42 35.675781 42Z" fill="#5B5B5B" />
</svg>