<svg xmlns="http://www.w3.org/2000/svg" xmlns:xlink="http://www.w3.org/1999/xlink" viewBox="0 0 50 50" fill="#5B5B5B">
  <path d="M5.4648438 2 A 1.0001 1.0001 0 0 0 4.46875 3.0898438L7.9882812 42.515625 A 1.0001 1.0001 0 0 0 8.7089844 43.388672L24.71875 47.960938 A 1.0001 1.0001 0 0 0 25.267578 47.960938L41.292969 43.388672 A 1.0001 1.0001 0 0 0 42.013672 42.515625L45.53125 3.0898438 A 1.0001 1.0001 0 0 0 44.535156 2L5.4648438 2 z M 6.5585938 4L43.441406 4L40.083984 41.654297L24.994141 45.960938L9.9199219 41.654297L6.5585938 4 z M 19 10 A 1.0001 1.0001 0 0 0 18 11L18 29.628906L12.267578 28.041016 A 1.0001 1.0001 0 0 0 11 29.003906L11 33.949219 A 1.0001 1.0001 0 0 0 11.732422 34.912109L22.732422 37.962891 A 1.0001 1.0001 0 0 0 24 37L24 11 A 1.0001 1.0001 0 0 0 23 10L19 10 z M 27 10 A 1.0001 1.0001 0 0 0 26 11L26 28 A 1.0001 1.0001 0 0 0 27.169922 28.986328L32.917969 27.996094L32.798828 29.767578L26.734375 31.435547 A 1.0001 1.0001 0 0 0 26 32.398438L26 37 A 1.0001 1.0001 0 0 0 27.265625 37.964844L37.265625 35.214844 A 1.0001 1.0001 0 0 0 37.996094 34.335938L39.050781 22.085938 A 1.0001 1.0001 0 0 0 37.914062 21.009766L32 21.847656L32 16L38.654297 16 A 1.0001 1.0001 0 0 0 39.650391 15.085938L39.996094 11.085938 A 1.0001 1.0001 0 0 0 39 10L27 10 z M 20 12L22 12L22 35.685547L13 33.189453L13 30.318359L18.732422 31.908203 A 1.0001 1.0001 0 0 0 20 30.945312L20 12 z M 28 12L37.910156 12L37.736328 14L31 14 A 1.0001 1.0001 0 0 0 30 15L30 23 A 1.0001 1.0001 0 0 0 31.140625 23.990234L36.951172 23.166016L36.0625 33.470703L28 35.6875L28 33.162109L34.015625 31.507812 A 1.0001 1.0001 0 0 0 34.748047 30.611328L34.998047 26.861328 A 1.0001 1.0001 0 0 0 33.830078 25.808594L28 26.8125L28 12 z" fill="#5B5B5B" />
</svg>