<svg xmlns="http://www.w3.org/2000/svg" xmlns:xlink="http://www.w3.org/1999/xlink" viewBox="0 0 50 50" fill="#5B5B5B">
  <path fill-rule="evenodd" d="M39 40L25 44L11 40L8 6L42 6C41 17.332031 40 28.667969 39 40 Z M 39.816406 8L10.183594 8L12.871094 38.453125L25 41.921875L37.128906 38.453125 Z M 16.800781 28L20.800781 28L20.898438 30.5L25 31.898438L29.101563 30.5L29.398438 26L20.601563 26L20.398438 22L29.601563 22L29.898438 18L16.101563 18L15.800781 14L34.101563 14L33.601563 22L32.898438 33.5L25 36.101563L17.101563 33.5Z" fill="#5B5B5B" />
</svg>